{
.appVersion = "1286";
copyright = "Copyright © 2020 by Florian Karsten. All rights reserved.";
date = "2020-05-18 19:13:15 +0000";
designer = "Florian Karsten";
designerURL = fonts.floriankarsten.com;
familyName = "FKxGF Schoolbook";
featurePrefixes = (
{
automatic = 1;
code = "languagesystem DFLT dflt;\012";
name = Languagesystems;
}
);
features = (
{
automatic = 1;
code = "feature salt;\012feature ss01;\012";
name = aalt;
},
{
automatic = 1;
code = "lookup ccmp_Other_1 {\012	@CombiningTopAccents = [dotaccentcomb];\012	sub [i j]' @CombiningTopAccents by [idotless jdotless];\012} ccmp_Other_1;\012";
name = ccmp;
},
{
automatic = 1;
code = "lookupflag IgnoreMarks;\012sub f f i by f_f_i.liga;\012sub f f l by f_f_l.liga;\012sub f f by f_f.liga;\012sub f i by f_i.liga;\012sub f l by f_l.liga;\012";
name = liga;
},
{
automatic = 1;
code = "sub i by i.ss01;\012sub idotless by idotless.ss01;\012sub l by l.ss01;\012";
name = salt;
},
{
automatic = 1;
code = "sub i by i.ss01;\012sub idotless by idotless.ss01;\012sub l by l.ss01;\012";
name = ss01;
}
);
fontMaster = (
{
alignmentZones = (
"{760, 10}",
"{720, 10}",
"{550, 10}",
"{0, -10}",
"{-190, -10}"
);
ascender = 760;
capHeight = 720;
custom = Sekeleton;
descender = -200;
iconName = Light;
id = "CA54B7DC-FBBB-40FE-ACF3-AABDD76D6A7B";
widthValue = 0;
xHeight = 550;
}
);
glyphs = (
{
glyphname = A;
lastChange = "2020-05-11 07:02:07 +0000";
layers = (
{
layerId = "CA54B7DC-FBBB-40FE-ACF3-AABDD76D6A7B";
paths = (
{
closed = 1;
nodes = (
"563 265 LINE",
"195 265 LINE",
"195 245 LINE",
"563 245 LINE"
);
},
{
closed = 1;
nodes = (
"86 20 LINE",
"110 20 LINE",
"382 695 LINE",
"381 720 LINE",
"368 720 LINE"
);
},
{
closed = 1;
nodes = (
"375 720 LINE",
"373 699 LINE",
"647 20 LINE",
"672 20 LINE",
"390 720 LINE"
);
},
{
closed = 1;
nodes = (
"6 0 LINE",
"250 0 LINE",
"250 20 LINE",
"6 20 LINE"
);
},
{
closed = 1;
nodes = (
"507 0 LINE",
"752 0 LINE",
"752 20 LINE",
"507 20 LINE"
);
}
);
width = 758;
}
);
leftKerningGroup = A;
rightKerningGroup = A;
unicode = 0041;
},
{
glyphname = B;
lastChange = "2020-05-09 20:56:23 +0000";
layers = (
{
layerId = "CA54B7DC-FBBB-40FE-ACF3-AABDD76D6A7B";
paths = (
{
closed = 1;
nodes = (
"174 700 LINE",
"422 700 LINE SMOOTH",
"546 700 OFFCURVE",
"624 645 OFFCURVE",
"624 538 CURVE SMOOTH",
"624 431 OFFCURVE",
"546 376 OFFCURVE",
"422 376 CURVE SMOOTH",
"174 376 LINE",
"174 360 LINE",
"428 360 LINE SMOOTH",
"560 360 OFFCURVE",
"648 421 OFFCURVE",
"648 538 CURVE SMOOTH",
"648 658 OFFCURVE",
"560 720 OFFCURVE",
"428 720 CURVE SMOOTH",
"174 720 LINE"
);
},
{
closed = 1;
nodes = (
"150 20 LINE",
"40 20 LINE",
"40 0 LINE",
"150 0 LINE"
);
},
{
closed = 1;
nodes = (
"174 720 LINE",
"150 720 LINE",
"150 0 LINE",
"174 0 LINE"
);
},
{
closed = 1;
nodes = (
"150 720 LINE",
"46 720 LINE",
"46 700 LINE",
"150 700 LINE"
);
},
{
closed = 1;
nodes = (
"174 356 LINE",
"434 356 LINE SMOOTH",
"562 356 OFFCURVE",
"642 299 OFFCURVE",
"642 188 CURVE SMOOTH",
"642 77 OFFCURVE",
"562 20 OFFCURVE",
"434 20 CURVE SMOOTH",
"174 20 LINE",
"174 0 LINE",
"440 0 LINE SMOOTH",
"576 0 OFFCURVE",
"666 64 OFFCURVE",
"666 188 CURVE SMOOTH",
"666 309 OFFCURVE",
"576 373 OFFCURVE",
"440 373 CURVE SMOOTH",
"174 373 LINE"
);
}
);
width = 710;
}
);
leftKerningGroup = I;
leftMetricsKey = I;
rightKerningGroup = B;
unicode = 0042;
},
{
glyphname = C;
lastChange = "2020-05-08 20:12:26 +0000";
layers = (
{
layerId = "CA54B7DC-FBBB-40FE-ACF3-AABDD76D6A7B";
paths = (
{
closed = 1;
nodes = (
"701 465 LINE",
"695 622 OFFCURVE",
"591 730 OFFCURVE",
"412 730 CURVE SMOOTH",
"223 730 OFFCURVE",
"78 594 OFFCURVE",
"78 360 CURVE SMOOTH",
"78 126 OFFCURVE",
"223 -10 OFFCURVE",
"412 -10 CURVE SMOOTH",
"607 -10 OFFCURVE",
"710 123 OFFCURVE",
"714 273 CURVE",
"692 274 LINE",
"686 133 OFFCURVE",
"592 12 OFFCURVE",
"412 12 CURVE SMOOTH",
"236 12 OFFCURVE",
"102 148 OFFCURVE",
"102 360 CURVE SMOOTH",
"102 572 OFFCURVE",
"236 708 OFFCURVE",
"412 708 CURVE SMOOTH",
"591 708 OFFCURVE",
"672 591 OFFCURVE",
"682 465 CURVE"
);
},
{
closed = 1;
nodes = (
"688 720 LINE",
"688 492 LINE",
"701 465 LINE",
"710 465 LINE",
"710 720 LINE"
);
}
);
width = 792;
}
);
leftKerningGroup = O;
leftMetricsKey = O;
rightKerningGroup = C;
unicode = 0043;
},
{
glyphname = D;
lastChange = "2020-05-11 06:48:35 +0000";
layers = (
{
layerId = "CA54B7DC-FBBB-40FE-ACF3-AABDD76D6A7B";
paths = (
{
closed = 1;
nodes = (
"174 700 LINE",
"318 700 LINE SMOOTH",
"532 700 OFFCURVE",
"672 568 OFFCURVE",
"672 360 CURVE SMOOTH",
"672 152 OFFCURVE",
"532 20 OFFCURVE",
"318 20 CURVE SMOOTH",
"174 20 LINE",
"174 0 LINE",
"318 0 LINE SMOOTH",
"546 0 OFFCURVE",
"696 132 OFFCURVE",
"696 360 CURVE SMOOTH",
"696 588 OFFCURVE",
"546 720 OFFCURVE",
"318 720 CURVE SMOOTH",
"174 720 LINE"
);
},
{
closed = 1;
nodes = (
"150 20 LINE",
"40 20 LINE",
"40 0 LINE",
"150 0 LINE"
);
},
{
closed = 1;
nodes = (
"174 720 LINE",
"150 720 LINE",
"150 0 LINE",
"174 0 LINE"
);
},
{
closed = 1;
nodes = (
"150 720 LINE",
"46 720 LINE",
"46 700 LINE",
"150 700 LINE"
);
}
);
width = 774;
}
);
leftKerningGroup = I;
leftMetricsKey = I;
rightKerningGroup = O;
rightMetricsKey = O;
unicode = 0044;
},
{
glyphname = E;
lastChange = "2020-05-11 07:01:14 +0000";
layers = (
{
layerId = "CA54B7DC-FBBB-40FE-ACF3-AABDD76D6A7B";
paths = (
{
closed = 1;
nodes = (
"632 20 LINE",
"40 20 LINE",
"40 0 LINE",
"632 0 LINE"
);
},
{
closed = 1;
nodes = (
"174 720 LINE",
"150 720 LINE",
"150 0 LINE",
"174 0 LINE"
);
},
{
closed = 1;
nodes = (
"622 720 LINE",
"46 720 LINE",
"46 700 LINE",
"622 700 LINE"
);
},
{
closed = 1;
nodes = (
"632 20 LINE",
"632 250 LINE",
"612 250 LINE",
"612 90 LINE SMOOTH",
"612 34 OFFCURVE",
"608 20 OFFCURVE",
"552 20 CURVE"
);
},
{
closed = 1;
nodes = (
"598 700 OFFCURVE",
"602 686 OFFCURVE",
"602 630 CURVE SMOOTH",
"602 480 LINE",
"622 480 LINE",
"622 700 LINE",
"542 700 LINE"
);
},
{
closed = 1;
nodes = (
"464 392 LINE",
"174 392 LINE",
"174 372 LINE",
"464 372 LINE"
);
},
{
closed = 1;
nodes = (
"440 372 OFFCURVE",
"444 358 OFFCURVE",
"444 302 CURVE SMOOTH",
"444 175 LINE",
"464 175 LINE",
"464 372 LINE",
"384 372 LINE"
);
},
{
closed = 1;
nodes = (
"464 392 LINE",
"464 550 LINE",
"444 550 LINE",
"444 462 LINE SMOOTH",
"444 406 OFFCURVE",
"440 392 OFFCURVE",
"384 392 CURVE"
);
}
);
width = 702;
}
);
leftKerningGroup = I;
leftMetricsKey = I;
rightKerningGroup = E;
unicode = 0045;
},
{
glyphname = F;
lastChange = "2020-05-08 20:11:13 +0000";
layers = (
{
layerId = "CA54B7DC-FBBB-40FE-ACF3-AABDD76D6A7B";
paths = (
{
closed = 1;
nodes = (
"354 20 LINE",
"40 20 LINE",
"40 0 LINE",
"354 0 LINE"
);
},
{
closed = 1;
nodes = (
"174 720 LINE",
"150 720 LINE",
"150 0 LINE",
"174 0 LINE"
);
},
{
closed = 1;
nodes = (
"602 720 LINE",
"46 720 LINE",
"46 700 LINE",
"602 700 LINE"
);
},
{
closed = 1;
nodes = (
"578 700 OFFCURVE",
"582 686 OFFCURVE",
"582 630 CURVE SMOOTH",
"582 480 LINE",
"602 480 LINE",
"602 700 LINE",
"522 700 LINE"
);
},
{
closed = 1;
nodes = (
"454 382 LINE",
"174 382 LINE",
"174 362 LINE",
"454 362 LINE"
);
},
{
closed = 1;
nodes = (
"430 362 OFFCURVE",
"434 348 OFFCURVE",
"434 292 CURVE SMOOTH",
"434 170 LINE",
"454 170 LINE",
"454 362 LINE",
"374 362 LINE"
);
},
{
closed = 1;
nodes = (
"454 382 LINE",
"454 550 LINE",
"434 550 LINE",
"434 452 LINE SMOOTH",
"434 396 OFFCURVE",
"430 382 OFFCURVE",
"374 382 CURVE"
);
}
);
width = 627;
}
);
leftKerningGroup = I;
leftMetricsKey = I;
rightKerningGroup = F;
unicode = 0046;
},
{
glyphname = G;
lastChange = "2020-05-08 20:13:04 +0000";
layers = (
{
layerId = "CA54B7DC-FBBB-40FE-ACF3-AABDD76D6A7B";
paths = (
{
closed = 1;
nodes = (
"685 480 LINE",
"676 635 OFFCURVE",
"582 730 OFFCURVE",
"414 730 CURVE SMOOTH",
"223 730 OFFCURVE",
"78 594 OFFCURVE",
"78 360 CURVE SMOOTH",
"78 126 OFFCURVE",
"225 -10 OFFCURVE",
"420 -10 CURVE SMOOTH",
"615 -10 OFFCURVE",
"710 129 OFFCURVE",
"710 316 CURVE",
"690 316 LINE",
"690 151 OFFCURVE",
"602 12 OFFCURVE",
"420 12 CURVE SMOOTH",
"238 12 OFFCURVE",
"102 148 OFFCURVE",
"102 360 CURVE SMOOTH",
"102 572 OFFCURVE",
"237 708 OFFCURVE",
"414 708 CURVE SMOOTH",
"581 708 OFFCURVE",
"656 607 OFFCURVE",
"666 480 CURVE"
);
},
{
closed = 1;
nodes = (
"672 720 LINE",
"672 507 LINE",
"685 480 LINE",
"694 480 LINE",
"694 720 LINE"
);
},
{
closed = 1;
nodes = (
"408 316 LINE",
"812 316 LINE",
"812 336 LINE",
"408 336 LINE"
);
},
{
closed = 1;
nodes = (
"690 316 LINE",
"690 0 LINE",
"712 0 LINE",
"712 316 LINE"
);
}
);
width = 834;
}
);
leftKerningGroup = O;
leftMetricsKey = O;
rightKerningGroup = G;
unicode = 0047;
},
{
glyphname = H;
lastChange = "2020-05-08 20:11:13 +0000";
layers = (
{
layerId = "CA54B7DC-FBBB-40FE-ACF3-AABDD76D6A7B";
paths = (
{
closed = 1;
nodes = (
"294 20 LINE",
"40 20 LINE",
"40 0 LINE",
"294 0 LINE"
);
},
{
closed = 1;
nodes = (
"174 720 LINE",
"150 720 LINE",
"150 0 LINE",
"174 0 LINE"
);
},
{
closed = 1;
nodes = (
"288 720 LINE",
"46 720 LINE",
"46 700 LINE",
"288 700 LINE"
);
},
{
closed = 1;
nodes = (
"760 20 LINE",
"506 20 LINE",
"506 0 LINE",
"760 0 LINE"
);
},
{
closed = 1;
nodes = (
"650 720 LINE",
"626 720 LINE",
"626 0 LINE",
"650 0 LINE"
);
},
{
closed = 1;
nodes = (
"754 720 LINE",
"512 720 LINE",
"512 700 LINE",
"754 700 LINE"
);
},
{
closed = 1;
nodes = (
"626 375 LINE",
"174 375 LINE",
"174 355 LINE",
"626 355 LINE"
);
}
);
width = 800;
}
);
leftKerningGroup = I;
leftMetricsKey = I;
rightKerningGroup = I;
rightMetricsKey = I;
unicode = 0048;
},
{
glyphname = I;
lastChange = "2020-05-08 20:11:10 +0000";
layers = (
{
layerId = "CA54B7DC-FBBB-40FE-ACF3-AABDD76D6A7B";
paths = (
{
closed = 1;
nodes = (
"284 20 LINE",
"40 20 LINE",
"40 0 LINE",
"284 0 LINE"
);
},
{
closed = 1;
nodes = (
"174 720 LINE",
"150 720 LINE",
"150 0 LINE",
"174 0 LINE"
);
},
{
closed = 1;
nodes = (
"278 720 LINE",
"46 720 LINE",
"46 700 LINE",
"278 700 LINE"
);
}
);
width = 324;
}
);
leftKerningGroup = I;
rightKerningGroup = I;
unicode = 0049;
},
{
glyphname = J;
lastChange = "2020-05-11 06:52:23 +0000";
layers = (
{
layerId = "CA54B7DC-FBBB-40FE-ACF3-AABDD76D6A7B";
paths = (
{
closed = 1;
nodes = (
"390 720 LINE",
"390 196 LINE SMOOTH",
"390 73 OFFCURVE",
"326 10 OFFCURVE",
"224 10 CURVE SMOOTH",
"122 10 OFFCURVE",
"58 73 OFFCURVE",
"58 196 CURVE SMOOTH",
"58 250 LINE",
"38 250 LINE",
"38 194 LINE SMOOTH",
"38 55 OFFCURVE",
"112 -10 OFFCURVE",
"226 -10 CURVE SMOOTH",
"340 -10 OFFCURVE",
"414 55 OFFCURVE",
"414 198 CURVE SMOOTH",
"414 720 LINE"
);
},
{
closed = 1;
nodes = (
"256 700 LINE",
"518 700 LINE",
"518 720 LINE",
"256 720 LINE"
);
}
);
width = 540;
}
);
leftKerningGroup = J;
rightKerningGroup = U;
rightMetricsKey = U;
unicode = 004A;
},
{
glyphname = K;
lastChange = "2020-05-18 18:52:03 +0000";
layers = (
{
layerId = "CA54B7DC-FBBB-40FE-ACF3-AABDD76D6A7B";
paths = (
{
closed = 1;
nodes = (
"267 390 LINE",
"627 17 LINE",
"660 17 LINE",
"284 406 LINE"
);
},
{
closed = 1;
nodes = (
"716 720 LINE",
"472 720 LINE",
"472 700 LINE",
"716 700 LINE"
);
},
{
closed = 1;
nodes = (
"740 17 LINE",
"497 17 LINE",
"497 -3 LINE",
"740 -3 LINE"
);
},
{
closed = 1;
nodes = (
"164 281 LINE",
"636 700 LINE",
"602 700 LINE",
"157 305 LINE"
);
},
{
closed = 1;
nodes = (
"284 20 LINE",
"40 20 LINE",
"40 0 LINE",
"284 0 LINE"
);
},
{
closed = 1;
nodes = (
"174 720 LINE",
"150 720 LINE",
"150 0 LINE",
"174 0 LINE"
);
},
{
closed = 1;
nodes = (
"278 720 LINE",
"46 720 LINE",
"46 700 LINE",
"278 700 LINE"
);
}
);
width = 756;
}
);
leftKerningGroup = I;
leftMetricsKey = I;
rightKerningGroup = K;
unicode = 004B;
},
{
glyphname = L;
lastChange = "2020-05-18 16:04:33 +0000";
layers = (
{
layerId = "CA54B7DC-FBBB-40FE-ACF3-AABDD76D6A7B";
paths = (
{
closed = 1;
nodes = (
"608 20 LINE",
"40 20 LINE",
"40 0 LINE",
"608 0 LINE"
);
},
{
closed = 1;
nodes = (
"174 720 LINE",
"150 720 LINE",
"150 0 LINE",
"174 0 LINE"
);
},
{
closed = 1;
nodes = (
"314 720 LINE",
"46 720 LINE",
"46 700 LINE",
"314 700 LINE"
);
},
{
closed = 1;
nodes = (
"608 20 LINE",
"608 250 LINE",
"588 250 LINE",
"588 90 LINE SMOOTH",
"588 34 OFFCURVE",
"584 20 OFFCURVE",
"528 20 CURVE"
);
}
);
width = 636;
}
);
leftKerningGroup = I;
leftMetricsKey = I;
rightKerningGroup = L;
unicode = 004C;
},
{
glyphname = M;
lastChange = "2020-05-18 16:03:17 +0000";
layers = (
{
layerId = "CA54B7DC-FBBB-40FE-ACF3-AABDD76D6A7B";
paths = (
{
closed = 1;
nodes = (
"284 20 LINE",
"40 20 LINE",
"40 0 LINE",
"284 0 LINE"
);
},
{
closed = 1;
nodes = (
"174 679 LINE",
"174 720 LINE",
"150 720 LINE",
"150 0 LINE",
"174 0 LINE"
);
},
{
closed = 1;
nodes = (
"150 720 LINE",
"46 720 LINE",
"46 700 LINE",
"150 700 LINE"
);
},
{
closed = 1;
nodes = (
"774 679 LINE",
"774 720 LINE",
"767 720 LINE",
"471 26 LINE",
"471 0 LINE",
"484 0 LINE"
);
},
{
closed = 1;
nodes = (
"908 20 LINE",
"664 20 LINE",
"664 0 LINE",
"908 0 LINE"
);
},
{
closed = 1;
nodes = (
"798 720 LINE",
"774 720 LINE",
"774 0 LINE",
"798 0 LINE"
);
},
{
closed = 1;
nodes = (
"902 720 LINE",
"798 720 LINE",
"798 700 LINE",
"902 700 LINE"
);
},
{
closed = 1;
nodes = (
"477 0 LINE",
"478 26 LINE",
"182 720 LINE",
"174 720 LINE",
"174 679 LINE",
"464 0 LINE"
);
}
);
width = 948;
}
);
leftKerningGroup = I;
leftMetricsKey = I;
rightKerningGroup = I;
rightMetricsKey = I;
unicode = 004D;
},
{
glyphname = N;
lastChange = "2020-05-18 16:08:02 +0000";
layers = (
{
layerId = "CA54B7DC-FBBB-40FE-ACF3-AABDD76D6A7B";
paths = (
{
closed = 1;
nodes = (
"284 20 LINE",
"40 20 LINE",
"40 0 LINE",
"284 0 LINE"
);
},
{
closed = 1;
nodes = (
"174 682 LINE",
"176 720 LINE",
"150 720 LINE",
"150 0 LINE",
"174 0 LINE"
);
},
{
closed = 1;
nodes = (
"150 720 LINE",
"46 720 LINE",
"46 700 LINE",
"150 700 LINE"
);
},
{
closed = 1;
nodes = (
"176 720 LINE",
"174 682 LINE",
"636 0 LINE",
"638 38 LINE"
);
},
{
closed = 1;
nodes = (
"766 720 LINE",
"534 720 LINE",
"534 700 LINE",
"766 700 LINE"
);
},
{
closed = 1;
nodes = (
"662 720 LINE",
"638 720 LINE",
"638 38 LINE",
"636 0 LINE",
"662 0 LINE"
);
}
);
width = 802;
}
);
leftKerningGroup = I;
leftMetricsKey = I;
rightKerningGroup = N;
unicode = 004E;
},
{
glyphname = O;
lastChange = "2020-05-08 20:12:07 +0000";
layers = (
{
layerId = "CA54B7DC-FBBB-40FE-ACF3-AABDD76D6A7B";
paths = (
{
closed = 1;
nodes = (
"636 -10 OFFCURVE",
"788 126 OFFCURVE",
"788 360 CURVE SMOOTH",
"788 594 OFFCURVE",
"636 730 OFFCURVE",
"433 730 CURVE SMOOTH",
"230 730 OFFCURVE",
"78 594 OFFCURVE",
"78 360 CURVE SMOOTH",
"78 126 OFFCURVE",
"230 -10 OFFCURVE",
"433 -10 CURVE SMOOTH"
);
},
{
closed = 1;
nodes = (
"236 10 OFFCURVE",
"102 148 OFFCURVE",
"102 360 CURVE SMOOTH",
"102 572 OFFCURVE",
"236 710 OFFCURVE",
"433 710 CURVE SMOOTH",
"630 710 OFFCURVE",
"764 572 OFFCURVE",
"764 360 CURVE SMOOTH",
"764 148 OFFCURVE",
"630 10 OFFCURVE",
"433 10 CURVE SMOOTH"
);
}
);
width = 866;
}
);
leftKerningGroup = O;
rightKerningGroup = O;
unicode = 004F;
},
{
glyphname = P;
lastChange = "2020-05-09 20:56:23 +0000";
layers = (
{
layerId = "CA54B7DC-FBBB-40FE-ACF3-AABDD76D6A7B";
paths = (
{
closed = 1;
nodes = (
"174 700 LINE",
"424 700 LINE SMOOTH",
"554 700 OFFCURVE",
"636 642 OFFCURVE",
"636 528 CURVE SMOOTH",
"636 414 OFFCURVE",
"554 356 OFFCURVE",
"424 356 CURVE SMOOTH",
"174 356 LINE",
"174 336 LINE",
"430 336 LINE SMOOTH",
"568 336 OFFCURVE",
"660 401 OFFCURVE",
"660 528 CURVE SMOOTH",
"660 655 OFFCURVE",
"568 720 OFFCURVE",
"430 720 CURVE SMOOTH",
"174 720 LINE"
);
},
{
closed = 1;
nodes = (
"314 20 LINE",
"40 20 LINE",
"40 0 LINE",
"314 0 LINE"
);
},
{
closed = 1;
nodes = (
"174 720 LINE",
"150 720 LINE",
"150 0 LINE",
"174 0 LINE"
);
},
{
closed = 1;
nodes = (
"150 720 LINE",
"46 720 LINE",
"46 700 LINE",
"150 700 LINE"
);
}
);
width = 700;
}
);
leftKerningGroup = I;
leftMetricsKey = I;
rightKerningGroup = P;
unicode = 0050;
},
{
glyphname = Q;
lastChange = "2020-05-09 20:56:14 +0000";
layers = (
{
layerId = "CA54B7DC-FBBB-40FE-ACF3-AABDD76D6A7B";
paths = (
{
closed = 1;
nodes = (
"566 0 LINE",
"566 106 LINE SMOOTH",
"566 177 OFFCURVE",
"527 210 OFFCURVE",
"470 210 CURVE SMOOTH",
"413 210 OFFCURVE",
"372 177 OFFCURVE",
"372 106 CURVE SMOOTH",
"372 0 LINE",
"394 0 LINE",
"394 106 LINE SMOOTH",
"394 164 OFFCURVE",
"421 190 OFFCURVE",
"469 190 CURVE SMOOTH",
"517 190 OFFCURVE",
"544 164 OFFCURVE",
"544 106 CURVE SMOOTH",
"544 0 LINE"
);
},
{
closed = 1;
nodes = (
"636 -10 OFFCURVE",
"788 126 OFFCURVE",
"788 360 CURVE SMOOTH",
"788 594 OFFCURVE",
"636 730 OFFCURVE",
"433 730 CURVE SMOOTH",
"230 730 OFFCURVE",
"78 594 OFFCURVE",
"78 360 CURVE SMOOTH",
"78 126 OFFCURVE",
"230 -10 OFFCURVE",
"433 -10 CURVE SMOOTH"
);
},
{
closed = 1;
nodes = (
"236 10 OFFCURVE",
"102 148 OFFCURVE",
"102 360 CURVE SMOOTH",
"102 572 OFFCURVE",
"236 710 OFFCURVE",
"433 710 CURVE SMOOTH",
"630 710 OFFCURVE",
"764 572 OFFCURVE",
"764 360 CURVE SMOOTH",
"764 148 OFFCURVE",
"630 10 OFFCURVE",
"433 10 CURVE SMOOTH"
);
},
{
closed = 1;
nodes = (
"716 -66 LINE SMOOTH",
"716 -124 OFFCURVE",
"689 -150 OFFCURVE",
"641 -150 CURVE SMOOTH",
"593 -150 OFFCURVE",
"566 -124 OFFCURVE",
"566 -66 CURVE SMOOTH",
"566 0 LINE",
"544 0 LINE",
"544 -66 LINE SMOOTH",
"544 -137 OFFCURVE",
"585 -170 OFFCURVE",
"642 -170 CURVE SMOOTH",
"699 -170 OFFCURVE",
"738 -137 OFFCURVE",
"738 -66 CURVE SMOOTH",
"738 -30 LINE",
"716 -30 LINE"
);
}
);
width = 866;
}
);
leftKerningGroup = O;
leftMetricsKey = O;
rightKerningGroup = O;
rightMetricsKey = O;
unicode = 0051;
},
{
glyphname = R;
lastChange = "2020-05-08 20:11:13 +0000";
layers = (
{
layerId = "CA54B7DC-FBBB-40FE-ACF3-AABDD76D6A7B";
paths = (
{
closed = 1;
nodes = (
"174 700 LINE",
"424 700 LINE SMOOTH",
"554 700 OFFCURVE",
"636 645 OFFCURVE",
"636 536 CURVE SMOOTH",
"636 427 OFFCURVE",
"554 372 OFFCURVE",
"424 372 CURVE SMOOTH",
"174 372 LINE",
"174 352 LINE",
"407 352 LINE",
"430 352 LINE",
"566 352 OFFCURVE",
"660 414 OFFCURVE",
"660 536 CURVE SMOOTH",
"660 658 OFFCURVE",
"566 720 OFFCURVE",
"430 720 CURVE SMOOTH",
"174 720 LINE"
);
},
{
closed = 1;
nodes = (
"314 20 LINE",
"40 20 LINE",
"40 0 LINE",
"314 0 LINE"
);
},
{
closed = 1;
nodes = (
"174 720 LINE",
"150 720 LINE",
"150 0 LINE",
"174 0 LINE"
);
},
{
closed = 1;
nodes = (
"150 720 LINE",
"46 720 LINE",
"46 700 LINE",
"150 700 LINE"
);
},
{
closed = 1;
nodes = (
"174 352 LINE",
"362 352 LINE SMOOTH",
"443 352 OFFCURVE",
"488 304 OFFCURVE",
"488 218 CURVE SMOOTH",
"488 90 LINE SMOOTH",
"488 29 OFFCURVE",
"516 -10 OFFCURVE",
"576 -10 CURVE SMOOTH",
"636 -10 OFFCURVE",
"664 29 OFFCURVE",
"664 90 CURVE SMOOTH",
"664 270 LINE",
"642 270 LINE",
"642 90 LINE SMOOTH",
"642 45 OFFCURVE",
"624 10 OFFCURVE",
"577 10 CURVE SMOOTH",
"530 10 OFFCURVE",
"512 45 OFFCURVE",
"512 90 CURVE SMOOTH",
"512 214 LINE SMOOTH",
"512 311 OFFCURVE",
"467 365 OFFCURVE",
"371 365 CURVE SMOOTH",
"174 365 LINE"
);
}
);
width = 710;
}
);
leftKerningGroup = I;
leftMetricsKey = I;
rightKerningGroup = R;
unicode = 0052;
},
{
glyphname = S;
lastChange = "2020-05-09 20:56:23 +0000";
layers = (
{
layerId = "CA54B7DC-FBBB-40FE-ACF3-AABDD76D6A7B";
paths = (
{
closed = 1;
nodes = (
"84 426 OFFCURVE",
"175 384 OFFCURVE",
"298 366 CURVE SMOOTH",
"402 351 LINE SMOOTH",
"527 333 OFFCURVE",
"606 290 OFFCURVE",
"606 182 CURVE SMOOTH",
"606 74 OFFCURVE",
"524 10 OFFCURVE",
"392 10 CURVE SMOOTH",
"260 10 OFFCURVE",
"152 74 OFFCURVE",
"100 210 CURVE",
"80 210 LINE",
"127 57 OFFCURVE",
"250 -10 OFFCURVE",
"392 -10 CURVE SMOOTH",
"534 -10 OFFCURVE",
"630 56 OFFCURVE",
"630 182 CURVE SMOOTH",
"630 308 OFFCURVE",
"537 354 OFFCURVE",
"406 373 CURVE SMOOTH",
"302 388 LINE SMOOTH",
"186 405 OFFCURVE",
"108 444 OFFCURVE",
"108 548 CURVE SMOOTH",
"108 652 OFFCURVE",
"189 710 OFFCURVE",
"317 710 CURVE SMOOTH",
"445 710 OFFCURVE",
"545 652 OFFCURVE",
"592 520 CURVE",
"612 520 LINE",
"572 670 OFFCURVE",
"453 730 OFFCURVE",
"317 730 CURVE SMOOTH",
"181 730 OFFCURVE",
"84 670 OFFCURVE",
"84 548 CURVE SMOOTH"
);
},
{
closed = 1;
nodes = (
"594 720 LINE",
"594 557 LINE",
"612 520 LINE",
"614 520 LINE",
"614 720 LINE"
);
},
{
closed = 1;
nodes = (
"98 0 LINE",
"98 171 LINE",
"80 210 LINE",
"78 210 LINE",
"78 0 LINE"
);
}
);
width = 698;
}
);
leftKerningGroup = S;
rightKerningGroup = S;
unicode = 0053;
},
{
glyphname = T;
lastChange = "2020-05-18 16:04:48 +0000";
layers = (
{
layerId = "CA54B7DC-FBBB-40FE-ACF3-AABDD76D6A7B";
paths = (
{
closed = 1;
nodes = (
"534 20 LINE",
"210 20 LINE",
"210 0 LINE",
"534 0 LINE"
);
},
{
closed = 1;
nodes = (
"384 720 LINE",
"360 720 LINE",
"360 0 LINE",
"384 0 LINE"
);
},
{
closed = 1;
nodes = (
"694 720 LINE",
"50 720 LINE",
"50 700 LINE",
"694 700 LINE"
);
},
{
closed = 1;
nodes = (
"670 700 OFFCURVE",
"674 686 OFFCURVE",
"674 630 CURVE SMOOTH",
"674 485 LINE",
"694 485 LINE",
"694 700 LINE",
"614 700 LINE"
);
},
{
closed = 1;
nodes = (
"50 700 LINE",
"50 485 LINE",
"70 485 LINE",
"70 630 LINE SMOOTH",
"70 686 OFFCURVE",
"74 700 OFFCURVE",
"130 700 CURVE"
);
}
);
width = 744;
}
);
leftKerningGroup = T;
rightKerningGroup = T;
unicode = 0054;
},
{
glyphname = U;
lastChange = "2020-05-08 20:09:12 +0000";
layers = (
{
layerId = "CA54B7DC-FBBB-40FE-ACF3-AABDD76D6A7B";
paths = (
{
closed = 1;
nodes = (
"144 89 OFFCURVE",
"231 -10 OFFCURVE",
"402 -10 CURVE SMOOTH",
"573 -10 OFFCURVE",
"660 89 OFFCURVE",
"660 264 CURVE SMOOTH",
"660 720 LINE",
"636 720 LINE",
"636 264 LINE SMOOTH",
"636 108 OFFCURVE",
"562 10 OFFCURVE",
"402 10 CURVE SMOOTH",
"242 10 OFFCURVE",
"168 108 OFFCURVE",
"168 264 CURVE SMOOTH",
"168 720 LINE",
"144 720 LINE",
"144 264 LINE SMOOTH"
);
},
{
closed = 1;
nodes = (
"522 700 LINE",
"764 700 LINE",
"764 720 LINE",
"522 720 LINE"
);
},
{
closed = 1;
nodes = (
"40 720 LINE",
"40 700 LINE",
"282 700 LINE",
"282 720 LINE"
);
}
);
width = 786;
}
);
leftKerningGroup = U;
rightKerningGroup = U;
unicode = 0055;
},
{
glyphname = V;
lastChange = "2020-05-18 16:05:07 +0000";
layers = (
{
layerId = "CA54B7DC-FBBB-40FE-ACF3-AABDD76D6A7B";
paths = (
{
closed = 1;
nodes = (
"660 700 LINE",
"636 700 LINE",
"372 25 LINE",
"373 0 LINE",
"386 0 LINE"
);
},
{
closed = 1;
nodes = (
"379 0 LINE",
"381 21 LINE",
"115 700 LINE",
"90 700 LINE",
"364 0 LINE"
);
},
{
closed = 1;
nodes = (
"740 720 LINE",
"506 720 LINE",
"506 700 LINE",
"740 700 LINE"
);
},
{
closed = 1;
nodes = (
"255 720 LINE",
"10 720 LINE",
"10 700 LINE",
"255 700 LINE"
);
}
);
width = 750;
}
);
leftKerningGroup = V;
rightKerningGroup = V;
unicode = 0056;
},
{
glyphname = W;
lastChange = "2020-05-11 07:02:07 +0000";
layers = (
{
layerId = "CA54B7DC-FBBB-40FE-ACF3-AABDD76D6A7B";
paths = (
{
closed = 1;
nodes = (
"525 536 LINE",
"508 553 LINE",
"331 25 LINE",
"333 0 LINE",
"346 0 LINE"
);
},
{
closed = 1;
nodes = (
"339 0 LINE",
"341 21 LINE",
"114 700 LINE",
"90 700 LINE",
"324 0 LINE"
);
},
{
closed = 1;
nodes = (
"254 720 LINE",
"10 720 LINE",
"10 700 LINE",
"254 700 LINE"
);
},
{
closed = 1;
nodes = (
"940 700 LINE",
"917 700 LINE",
"691 25 LINE",
"693 0 LINE",
"706 0 LINE"
);
},
{
closed = 1;
nodes = (
"699 0 LINE",
"701 21 LINE",
"474 700 LINE",
"450 700 LINE",
"684 0 LINE"
);
},
{
closed = 1;
nodes = (
"1020 720 LINE",
"777 720 LINE",
"777 700 LINE",
"1020 700 LINE"
);
},
{
closed = 1;
nodes = (
"614 720 LINE",
"370 720 LINE",
"370 700 LINE",
"614 700 LINE"
);
}
);
width = 1030;
}
);
leftKerningGroup = W;
leftMetricsKey = V;
rightKerningGroup = W;
rightMetricsKey = V;
unicode = 0057;
},
{
glyphname = X;
lastChange = "2020-05-18 16:18:20 +0000";
layers = (
{
layerId = "CA54B7DC-FBBB-40FE-ACF3-AABDD76D6A7B";
paths = (
{
closed = 1;
nodes = (
"384 354 LINE",
"648 700 LINE",
"619 700 LINE",
"377 382 LINE"
);
},
{
closed = 1;
nodes = (
"728 720 LINE",
"499 720 LINE",
"499 700 LINE",
"728 700 LINE"
);
},
{
closed = 1;
nodes = (
"374 382 LINE",
"96 20 LINE",
"125 20 LINE",
"381 354 LINE"
);
},
{
closed = 1;
nodes = (
"245 20 LINE",
"16 20 LINE",
"16 0 LINE",
"245 0 LINE"
);
},
{
closed = 1;
nodes = (
"139 700 LINE",
"110 700 LINE",
"374 354 LINE",
"381 382 LINE"
);
},
{
closed = 1;
nodes = (
"269 700 LINE",
"269 720 LINE",
"30 720 LINE",
"30 700 LINE"
);
},
{
closed = 1;
nodes = (
"633 20 LINE",
"662 20 LINE",
"384 382 LINE",
"377 354 LINE"
);
},
{
closed = 1;
nodes = (
"742 0 LINE",
"742 20 LINE",
"503 20 LINE",
"503 0 LINE"
);
},
{
closed = 1;
nodes = (
"385 358 OFFCURVE",
"389 362 OFFCURVE",
"389 368 CURVE SMOOTH",
"389 374 OFFCURVE",
"385 378 OFFCURVE",
"379 378 CURVE SMOOTH",
"373 378 OFFCURVE",
"369 374 OFFCURVE",
"369 368 CURVE SMOOTH",
"369 362 OFFCURVE",
"373 358 OFFCURVE",
"379 358 CURVE SMOOTH"
);
}
);
width = 758;
}
);
leftKerningGroup = X;
rightKerningGroup = X;
unicode = 0058;
},
{
glyphname = Y;
lastChange = "2020-05-18 16:12:48 +0000";
layers = (
{
layerId = "CA54B7DC-FBBB-40FE-ACF3-AABDD76D6A7B";
paths = (
{
closed = 1;
nodes = (
"526 700 LINE",
"752 700 LINE",
"752 720 LINE",
"526 720 LINE"
);
},
{
closed = 1;
nodes = (
"396 291 LINE",
"672 700 LINE",
"646 700 LINE",
"377 302 LINE"
);
},
{
closed = 1;
nodes = (
"536 20 LINE",
"232 20 LINE",
"232 0 LINE",
"536 0 LINE"
);
},
{
closed = 1;
nodes = (
"396 306 LINE",
"372 306 LINE",
"372 0 LINE",
"396 0 LINE"
);
},
{
closed = 1;
nodes = (
"16 720 LINE",
"16 700 LINE",
"254 700 LINE",
"254 720 LINE"
);
},
{
closed = 1;
nodes = (
"124 700 LINE",
"96 700 LINE",
"372 291 LINE",
"392 302 LINE"
);
}
);
width = 768;
}
);
leftKerningGroup = Y;
rightKerningGroup = Y;
unicode = 0059;
},
{
glyphname = Z;
lastChange = "2020-05-11 07:02:07 +0000";
layers = (
{
layerId = "CA54B7DC-FBBB-40FE-ACF3-AABDD76D6A7B";
paths = (
{
closed = 1;
nodes = (
"80 700 LINE",
"575 700 LINE",
"604 702 LINE",
"604 720 LINE",
"80 720 LINE"
);
},
{
closed = 1;
nodes = (
"64 0 LINE",
"604 0 LINE",
"604 20 LINE",
"93 20 LINE",
"64 18 LINE"
);
},
{
closed = 1;
nodes = (
"93 20 LINE",
"604 702 LINE",
"575 700 LINE",
"64 18 LINE"
);
},
{
closed = 1;
nodes = (
"80 700 LINE",
"80 485 LINE",
"100 485 LINE",
"100 630 LINE SMOOTH",
"100 686 OFFCURVE",
"104 700 OFFCURVE",
"160 700 CURVE"
);
},
{
closed = 1;
nodes = (
"604 20 LINE",
"604 245 LINE",
"584 245 LINE",
"584 90 LINE SMOOTH",
"584 34 OFFCURVE",
"580 20 OFFCURVE",
"524 20 CURVE"
);
}
);
width = 658;
}
);
leftKerningGroup = Z;
rightKerningGroup = Z;
unicode = 005A;
},
{
glyphname = a;
lastChange = "2020-05-18 19:02:39 +0000";
layers = (
{
layerId = "CA54B7DC-FBBB-40FE-ACF3-AABDD76D6A7B";
paths = (
{
closed = 1;
nodes = (
"99 374 OFFCURVE",
"108 352 OFFCURVE",
"126 352 CURVE SMOOTH",
"137 352 OFFCURVE",
"143 358 OFFCURVE",
"143 369 CURVE SMOOTH",
"143 390 OFFCURVE",
"129 391 OFFCURVE",
"130 424 CURVE SMOOTH",
"132 493 OFFCURVE",
"210 540 OFFCURVE",
"297 540 CURVE SMOOTH",
"399 540 OFFCURVE",
"442 495 OFFCURVE",
"442 426 CURVE",
"466 417 LINE",
"466 514 OFFCURVE",
"405 560 OFFCURVE",
"301 560 CURVE SMOOTH",
"195 560 OFFCURVE",
"103 504 OFFCURVE",
"100 404 CURVE SMOOTH"
);
},
{
closed = 1;
nodes = (
"312 284 LINE SMOOTH",
"388 303 OFFCURVE",
"425 318 OFFCURVE",
"442 355 CURVE",
"442 422 LINE",
"442 343 OFFCURVE",
"387 323 OFFCURVE",
"308 304 CURVE SMOOTH",
"231 285 LINE SMOOTH",
"126 259 OFFCURVE",
"70 215 OFFCURVE",
"70 126 CURVE SMOOTH",
"70 40 OFFCURVE",
"136 -10 OFFCURVE",
"233 -10 CURVE SMOOTH",
"363 -10 OFFCURVE",
"462 63 OFFCURVE",
"461 243 CURVE",
"442 243 LINE",
"442 75 OFFCURVE",
"348 10 OFFCURVE",
"236 10 CURVE SMOOTH",
"153 10 OFFCURVE",
"94 51 OFFCURVE",
"94 126 CURVE SMOOTH",
"94 202 OFFCURVE",
"137 241 OFFCURVE",
"239 266 CURVE SMOOTH"
);
},
{
closed = 1;
nodes = (
"442 165 LINE",
"444 165 LINE",
"444 86 LINE SMOOTH",
"444 25 OFFCURVE",
"477 -10 OFFCURVE",
"531 -10 CURVE SMOOTH",
"585 -10 OFFCURVE",
"618 25 OFFCURVE",
"618 86 CURVE SMOOTH",
"618 260 LINE",
"596 260 LINE",
"596 86 LINE SMOOTH",
"596 41 OFFCURVE",
"574 10 OFFCURVE",
"531 10 CURVE SMOOTH",
"488 10 OFFCURVE",
"466 41 OFFCURVE",
"466 86 CURVE SMOOTH",
"466 417 LINE",
"442 426 LINE"
);
}
);
width = 660;
}
);
leftKerningGroup = a;
rightKerningGroup = a;
unicode = 0061;
},
{
glyphname = b;
lastChange = "2020-05-08 19:51:31 +0000";
layers = (
{
layerId = "CA54B7DC-FBBB-40FE-ACF3-AABDD76D6A7B";
paths = (
{
closed = 1;
nodes = (
"164 167 LINE",
"151 275 LINE",
"166 373 LINE",
"166 760 LINE",
"142 760 LINE",
"142 0 LINE",
"164 0 LINE"
);
},
{
closed = 1;
nodes = (
"52 740 LINE",
"166 740 LINE",
"166 760 LINE",
"52 760 LINE"
);
},
{
closed = 1;
nodes = (
"517 -8 OFFCURVE",
"616 99 OFFCURVE",
"616 275 CURVE SMOOTH",
"616 451 OFFCURVE",
"517 558 OFFCURVE",
"380 558 CURVE SMOOTH",
"233 558 OFFCURVE",
"144 451 OFFCURVE",
"144 275 CURVE SMOOTH",
"144 99 OFFCURVE",
"233 -8 OFFCURVE",
"380 -8 CURVE SMOOTH"
);
},
{
closed = 1;
nodes = (
"254 12 OFFCURVE",
"164 110 OFFCURVE",
"164 275 CURVE SMOOTH",
"164 440 OFFCURVE",
"254 538 OFFCURVE",
"380 538 CURVE SMOOTH",
"504 538 OFFCURVE",
"592 440 OFFCURVE",
"592 275 CURVE SMOOTH",
"592 110 OFFCURVE",
"504 12 OFFCURVE",
"380 12 CURVE SMOOTH"
);
}
);
width = 696;
}
);
leftKerningGroup = b;
rightKerningGroup = o;
rightMetricsKey = o;
unicode = 0062;
},
{
glyphname = c;
lastChange = "2020-05-08 20:08:18 +0000";
layers = (
{
layerId = "CA54B7DC-FBBB-40FE-ACF3-AABDD76D6A7B";
paths = (
{
closed = 1;
nodes = (
"329 538 LINE",
"461 538 OFFCURVE",
"512 449 OFFCURVE",
"512 388 CURVE SMOOTH",
"512 371 OFFCURVE",
"508 363 OFFCURVE",
"508 354 CURVE SMOOTH",
"508 342 OFFCURVE",
"512 335 OFFCURVE",
"521 335 CURVE SMOOTH",
"534 335 OFFCURVE",
"538 350 OFFCURVE",
"538 371 CURVE SMOOTH",
"538 468 OFFCURVE",
"472 558 OFFCURVE",
"329 558 CURVE"
);
},
{
closed = 1;
nodes = (
"526 181 LINE",
"514 111 OFFCURVE",
"457 12 OFFCURVE",
"329 12 CURVE SMOOTH",
"197 12 OFFCURVE",
"105 111 OFFCURVE",
"105 275 CURVE SMOOTH",
"105 439 OFFCURVE",
"197 538 OFFCURVE",
"329 538 CURVE",
"329 558 LINE",
"184 558 OFFCURVE",
"80 455 OFFCURVE",
"80 275 CURVE SMOOTH",
"80 95 OFFCURVE",
"184 -8 OFFCURVE",
"329 -8 CURVE SMOOTH",
"470 -8 OFFCURVE",
"533 95 OFFCURVE",
"547 177 CURVE"
);
}
);
width = 625;
}
);
leftKerningGroup = o;
leftMetricsKey = o;
rightKerningGroup = o;
unicode = 0063;
},
{
glyphname = d;
lastChange = "2020-05-08 20:08:18 +0000";
layers = (
{
layerId = "CA54B7DC-FBBB-40FE-ACF3-AABDD76D6A7B";
paths = (
{
closed = 1;
nodes = (
"554 0 LINE",
"554 760 LINE",
"530 760 LINE",
"530 373 LINE",
"545 275 LINE",
"532 167 LINE",
"532 0 LINE"
);
},
{
closed = 1;
nodes = (
"440 760 LINE",
"440 740 LINE",
"554 740 LINE",
"554 760 LINE"
);
},
{
closed = 1;
nodes = (
"463 -8 OFFCURVE",
"552 99 OFFCURVE",
"552 275 CURVE SMOOTH",
"552 451 OFFCURVE",
"463 558 OFFCURVE",
"316 558 CURVE SMOOTH",
"179 558 OFFCURVE",
"80 451 OFFCURVE",
"80 275 CURVE SMOOTH",
"80 99 OFFCURVE",
"179 -8 OFFCURVE",
"316 -8 CURVE SMOOTH"
);
},
{
closed = 1;
nodes = (
"192 12 OFFCURVE",
"104 110 OFFCURVE",
"104 275 CURVE SMOOTH",
"104 440 OFFCURVE",
"192 538 OFFCURVE",
"316 538 CURVE SMOOTH",
"442 538 OFFCURVE",
"532 440 OFFCURVE",
"532 275 CURVE SMOOTH",
"532 110 OFFCURVE",
"442 12 OFFCURVE",
"316 12 CURVE SMOOTH"
);
},
{
closed = 1;
nodes = (
"654 0 LINE",
"654 20 LINE",
"532 20 LINE",
"532 0 LINE"
);
}
);
width = 704;
}
);
leftKerningGroup = o;
leftMetricsKey = o;
rightKerningGroup = l;
rightMetricsKey = l;
unicode = 0064;
},
{
glyphname = e;
lastChange = "2020-05-08 19:49:50 +0000";
layers = (
{
layerId = "CA54B7DC-FBBB-40FE-ACF3-AABDD76D6A7B";
paths = (
{
closed = 1;
nodes = (
"529 173 LINE",
"513 109 OFFCURVE",
"459 13 OFFCURVE",
"327 13 CURVE SMOOTH",
"195 13 OFFCURVE",
"105 111 OFFCURVE",
"105 275 CURVE SMOOTH",
"105 439 OFFCURVE",
"195 538 OFFCURVE",
"327 538 CURVE",
"327 558 LINE",
"183 558 OFFCURVE",
"80 455 OFFCURVE",
"80 275 CURVE SMOOTH",
"80 95 OFFCURVE",
"183 -8 OFFCURVE",
"327 -8 CURVE SMOOTH",
"471 -8 OFFCURVE",
"534 95 OFFCURVE",
"550 168 CURVE"
);
},
{
closed = 1;
nodes = (
"552 308 LINE",
"552 455 OFFCURVE",
"470 558 OFFCURVE",
"327 558 CURVE",
"327 538 LINE",
"458 538 OFFCURVE",
"524 441 OFFCURVE",
"530 320 CURVE"
);
},
{
closed = 1;
nodes = (
"97 300 LINE",
"552 300 LINE",
"552 308 LINE",
"530 320 LINE",
"97 320 LINE"
);
}
);
width = 632;
}
);
leftKerningGroup = o;
leftMetricsKey = o;
rightKerningGroup = o;
rightMetricsKey = o;
unicode = 0065;
},
{
glyphname = f;
lastChange = "2020-05-18 19:09:14 +0000";
layers = (
{
layerId = "CA54B7DC-FBBB-40FE-ACF3-AABDD76D6A7B";
paths = (
{
closed = 1;
nodes = (
"18 530 LINE",
"382 530 LINE",
"382 550 LINE",
"18 550 LINE"
);
},
{
closed = 1;
nodes = (
"168 0 LINE",
"192 0 LINE",
"192 575 LINE",
"168 573 LINE"
);
},
{
closed = 1;
nodes = (
"58 0 LINE",
"332 0 LINE",
"332 20 LINE",
"58 20 LINE"
);
},
{
closed = 1;
nodes = (
"470 753 OFFCURVE",
"424 790 OFFCURVE",
"352 790 CURVE SMOOTH",
"234 790 OFFCURVE",
"168 716 OFFCURVE",
"168 573 CURVE",
"192 575 LINE",
"192 706 OFFCURVE",
"249 770 OFFCURVE",
"352 770 CURVE SMOOTH",
"410 770 OFFCURVE",
"445 742 OFFCURVE",
"448 704 CURVE SMOOTH",
"450 675 OFFCURVE",
"434 670 OFFCURVE",
"434 651 CURVE SMOOTH",
"434 642 OFFCURVE",
"439 637 OFFCURVE",
"447 637 CURVE SMOOTH",
"463 637 OFFCURVE",
"473 664 OFFCURVE",
"472 695 CURVE SMOOTH"
);
}
);
width = 414;
}
);
leftKerningGroup = f;
rightKerningGroup = f;
unicode = 0066;
},
{
glyphname = g;
lastChange = "2020-05-18 16:39:55 +0000";
layers = (
{
layerId = "CA54B7DC-FBBB-40FE-ACF3-AABDD76D6A7B";
paths = (
{
closed = 1;
nodes = (
"424 184 OFFCURVE",
"506 257 OFFCURVE",
"506 369 CURVE SMOOTH",
"506 459 OFFCURVE",
"455 513 OFFCURVE",
"393 534 CURVE",
"314 554 LINE",
"192 554 OFFCURVE",
"110 481 OFFCURVE",
"110 369 CURVE SMOOTH",
"110 257 OFFCURVE",
"192 184 OFFCURVE",
"308 184 CURVE SMOOTH"
);
},
{
closed = 1;
nodes = (
"207 204 OFFCURVE",
"134 269 OFFCURVE",
"134 369 CURVE SMOOTH",
"134 469 OFFCURVE",
"207 534 OFFCURVE",
"308 534 CURVE SMOOTH",
"409 534 OFFCURVE",
"482 469 OFFCURVE",
"482 369 CURVE SMOOTH",
"482 269 OFFCURVE",
"409 204 OFFCURVE",
"308 204 CURVE SMOOTH"
);
},
{
closed = 1;
nodes = (
"109 257 OFFCURVE",
"54 221 OFFCURVE",
"54 153 CURVE SMOOTH",
"54 91 OFFCURVE",
"103 50 OFFCURVE",
"177 50 CURVE SMOOTH",
"463 50 LINE SMOOTH",
"527 50 OFFCURVE",
"554 23 OFFCURVE",
"554 -25 CURVE SMOOTH",
"554 -100 OFFCURVE",
"485 -180 OFFCURVE",
"308 -180 CURVE SMOOTH",
"174 -180 OFFCURVE",
"106 -130 OFFCURVE",
"106 -54 CURVE SMOOTH",
"106 4 OFFCURVE",
"151 38 OFFCURVE",
"205 50 CURVE",
"201 67 LINE",
"134 54 OFFCURVE",
"82 13 OFFCURVE",
"82 -54 CURVE SMOOTH",
"82 -143 OFFCURVE",
"162 -200 OFFCURVE",
"308 -200 CURVE SMOOTH",
"503 -200 OFFCURVE",
"577 -111 OFFCURVE",
"577 -23 CURVE SMOOTH",
"577 36 OFFCURVE",
"541 70 OFFCURVE",
"464 70 CURVE SMOOTH",
"179 70 LINE SMOOTH",
"118 70 OFFCURVE",
"78 105 OFFCURVE",
"78 153 CURVE SMOOTH",
"78 207 OFFCURVE",
"115 234 OFFCURVE",
"165 239 CURVE",
"163 259 LINE"
);
},
{
closed = 1;
nodes = (
"393 534 LINE",
"590 534 LINE",
"590 554 LINE",
"314 554 LINE"
);
}
);
width = 640;
}
);
leftKerningGroup = g;
rightKerningGroup = g;
unicode = 0067;
},
{
glyphname = h;
lastChange = "2020-05-08 20:08:18 +0000";
layers = (
{
layerId = "CA54B7DC-FBBB-40FE-ACF3-AABDD76D6A7B";
paths = (
{
closed = 1;
nodes = (
"150 0 LINE",
"174 0 LINE",
"174 760 LINE",
"150 760 LINE"
);
},
{
closed = 1;
nodes = (
"40 0 LINE",
"284 0 LINE",
"284 20 LINE",
"40 20 LINE"
);
},
{
closed = 1;
nodes = (
"55 740 LINE",
"174 740 LINE",
"174 760 LINE",
"55 760 LINE"
);
},
{
closed = 1;
nodes = (
"174 276 LINE",
"174 457 OFFCURVE",
"276 538 OFFCURVE",
"385 538 CURVE SMOOTH",
"466 538 OFFCURVE",
"516 501 OFFCURVE",
"516 412 CURVE SMOOTH",
"516 0 LINE",
"540 0 LINE",
"540 412 LINE SMOOTH",
"540 517 OFFCURVE",
"476 558 OFFCURVE",
"386 558 CURVE SMOOTH",
"267 558 OFFCURVE",
"155 477 OFFCURVE",
"155 276 CURVE"
);
},
{
closed = 1;
nodes = (
"406 0 LINE",
"635 0 LINE",
"635 20 LINE",
"406 20 LINE"
);
}
);
width = 675;
}
);
leftKerningGroup = l;
leftMetricsKey = l;
rightKerningGroup = n;
rightMetricsKey = n;
unicode = 0068;
},
{
glyphname = idotless;
lastChange = "2020-05-18 18:43:27 +0000";
layers = (
{
anchors = (
{
name = top;
position = "{162, 550}";
}
);
layerId = "CA54B7DC-FBBB-40FE-ACF3-AABDD76D6A7B";
paths = (
{
closed = 1;
nodes = (
"150 0 LINE",
"174 0 LINE",
"174 550 LINE",
"150 550 LINE"
);
},
{
closed = 1;
nodes = (
"55 530 LINE",
"174 530 LINE",
"174 550 LINE",
"55 550 LINE"
);
},
{
closed = 1;
nodes = (
"40 0 LINE",
"274 0 LINE",
"274 20 LINE",
"40 20 LINE"
);
}
);
width = 324;
}
);
leftKerningGroup = n;
leftMetricsKey = l;
rightKerningGroup = l;
rightMetricsKey = l;
unicode = 0131;
},
{
glyphname = jdotless;
lastChange = "2020-05-18 18:45:37 +0000";
layers = (
{
anchors = (
{
name = top;
position = "{162, 550}";
}
);
layerId = "CA54B7DC-FBBB-40FE-ACF3-AABDD76D6A7B";
paths = (
{
closed = 1;
nodes = (
"150 -1 LINE",
"174 1 LINE",
"174 550 LINE",
"150 550 LINE"
);
},
{
closed = 1;
nodes = (
"55 530 LINE",
"174 530 LINE",
"174 550 LINE",
"55 550 LINE"
);
},
{
closed = 1;
nodes = (
"-60 -166 OFFCURVE",
"-19 -200 OFFCURVE",
"39 -200 CURVE SMOOTH",
"127 -200 OFFCURVE",
"174 -135 OFFCURVE",
"174 1 CURVE",
"150 -1 LINE",
"150 -125 OFFCURVE",
"110 -180 OFFCURVE",
"39 -180 CURVE SMOOTH",
"-4 -180 OFFCURVE",
"-37 -155 OFFCURVE",
"-37 -120 CURVE SMOOTH",
"-37 -94 OFFCURVE",
"-25 -89 OFFCURVE",
"-25 -71 CURVE SMOOTH",
"-25 -62 OFFCURVE",
"-30 -57 OFFCURVE",
"-38 -57 CURVE SMOOTH",
"-54 -57 OFFCURVE",
"-63 -82 OFFCURVE",
"-62 -110 CURVE SMOOTH"
);
}
);
width = 260;
}
);
leftKerningGroup = p;
rightKerningGroup = q;
unicode = 0237;
},
{
glyphname = k;
lastChange = "2020-05-18 18:50:51 +0000";
layers = (
{
layerId = "CA54B7DC-FBBB-40FE-ACF3-AABDD76D6A7B";
paths = (
{
closed = 1;
nodes = (
"599 550 LINE",
"401 550 LINE",
"401 530 LINE",
"599 530 LINE"
);
},
{
closed = 1;
nodes = (
"621 20 LINE",
"388 20 LINE",
"388 0 LINE",
"621 0 LINE"
);
},
{
closed = 1;
nodes = (
"166 198 LINE",
"529 530 LINE",
"496 530 LINE",
"152 215 LINE"
);
},
{
closed = 1;
nodes = (
"150 0 LINE",
"174 0 LINE",
"174 760 LINE",
"150 760 LINE"
);
},
{
closed = 1;
nodes = (
"55 740 LINE",
"174 740 LINE",
"174 760 LINE",
"55 760 LINE"
);
},
{
closed = 1;
nodes = (
"40 0 LINE",
"284 0 LINE",
"284 20 LINE",
"40 20 LINE"
);
},
{
closed = 1;
nodes = (
"262 297 LINE",
"519 20 LINE",
"551 20 LINE",
"279 313 LINE"
);
}
);
width = 651;
}
);
leftKerningGroup = l;
leftMetricsKey = l;
rightKerningGroup = k;
unicode = 006B;
},
{
glyphname = l;
lastChange = "2020-05-08 19:55:37 +0000";
layers = (
{
layerId = "CA54B7DC-FBBB-40FE-ACF3-AABDD76D6A7B";
paths = (
{
closed = 1;
nodes = (
"150 0 LINE",
"174 0 LINE",
"174 760 LINE",
"150 760 LINE"
);
},
{
closed = 1;
nodes = (
"55 740 LINE",
"174 740 LINE",
"174 760 LINE",
"55 760 LINE"
);
},
{
closed = 1;
nodes = (
"40 0 LINE",
"274 0 LINE",
"274 20 LINE",
"40 20 LINE"
);
}
);
width = 324;
}
);
leftKerningGroup = l;
rightKerningGroup = l;
unicode = 006C;
},
{
glyphname = m;
lastChange = "2020-05-08 20:08:18 +0000";
layers = (
{
layerId = "CA54B7DC-FBBB-40FE-ACF3-AABDD76D6A7B";
paths = (
{
closed = 1;
nodes = (
"170 0 LINE",
"194 0 LINE",
"194 367 LINE",
"192 367 LINE",
"192 550 LINE",
"170 550 LINE"
);
},
{
closed = 1;
nodes = (
"60 0 LINE",
"294 0 LINE",
"294 20 LINE",
"60 20 LINE"
);
},
{
closed = 1;
nodes = (
"75 530 LINE",
"192 530 LINE",
"192 550 LINE",
"75 550 LINE"
);
},
{
closed = 1;
nodes = (
"194 337 LINE",
"194 476 OFFCURVE",
"271 538 OFFCURVE",
"352 538 CURVE SMOOTH",
"410 538 OFFCURVE",
"445 511 OFFCURVE",
"445 446 CURVE SMOOTH",
"445 0 LINE",
"469 0 LINE",
"469 446 LINE SMOOTH",
"469 527 OFFCURVE",
"420 558 OFFCURVE",
"353 558 CURVE SMOOTH",
"259 558 OFFCURVE",
"176 491 OFFCURVE",
"176 337 CURVE"
);
},
{
closed = 1;
nodes = (
"345 0 LINE",
"569 0 LINE",
"569 20 LINE",
"345 20 LINE"
);
},
{
closed = 1;
nodes = (
"469 337 LINE",
"469 476 OFFCURVE",
"546 538 OFFCURVE",
"627 538 CURVE SMOOTH",
"685 538 OFFCURVE",
"720 511 OFFCURVE",
"720 446 CURVE SMOOTH",
"720 0 LINE",
"744 0 LINE",
"744 446 LINE SMOOTH",
"744 527 OFFCURVE",
"696 558 OFFCURVE",
"628 558 CURVE SMOOTH",
"534 558 OFFCURVE",
"451 491 OFFCURVE",
"451 337 CURVE"
);
},
{
closed = 1;
nodes = (
"620 0 LINE",
"839 0 LINE",
"839 20 LINE",
"620 20 LINE"
);
}
);
width = 879;
}
);
leftKerningGroup = n;
leftMetricsKey = n;
rightKerningGroup = n;
rightMetricsKey = n;
unicode = 006D;
},
{
glyphname = n;
lastChange = "2020-05-08 19:55:19 +0000";
layers = (
{
layerId = "CA54B7DC-FBBB-40FE-ACF3-AABDD76D6A7B";
paths = (
{
closed = 1;
nodes = (
"170 0 LINE",
"194 0 LINE",
"194 355 LINE",
"192 355 LINE",
"192 550 LINE",
"170 550 LINE"
);
},
{
closed = 1;
nodes = (
"60 0 LINE",
"304 0 LINE",
"304 20 LINE",
"60 20 LINE"
);
},
{
closed = 1;
nodes = (
"75 530 LINE",
"192 530 LINE",
"192 550 LINE",
"75 550 LINE"
);
},
{
closed = 1;
nodes = (
"194 276 LINE",
"194 457 OFFCURVE",
"296 538 OFFCURVE",
"405 538 CURVE SMOOTH",
"486 538 OFFCURVE",
"536 501 OFFCURVE",
"536 412 CURVE SMOOTH",
"536 0 LINE",
"560 0 LINE",
"560 412 LINE SMOOTH",
"560 517 OFFCURVE",
"496 558 OFFCURVE",
"406 558 CURVE SMOOTH",
"286 558 OFFCURVE",
"175 477 OFFCURVE",
"175 276 CURVE"
);
},
{
closed = 1;
nodes = (
"426 0 LINE",
"655 0 LINE",
"655 20 LINE",
"426 20 LINE"
);
}
);
width = 695;
}
);
leftKerningGroup = n;
rightKerningGroup = n;
unicode = 006E;
},
{
glyphname = o;
lastChange = "2020-05-08 19:49:59 +0000";
layers = (
{
layerId = "CA54B7DC-FBBB-40FE-ACF3-AABDD76D6A7B";
paths = (
{
closed = 1;
nodes = (
"484 -8 OFFCURVE",
"590 95 OFFCURVE",
"590 275 CURVE SMOOTH",
"590 455 OFFCURVE",
"484 558 OFFCURVE",
"335 558 CURVE SMOOTH",
"186 558 OFFCURVE",
"80 455 OFFCURVE",
"80 275 CURVE SMOOTH",
"80 95 OFFCURVE",
"186 -8 OFFCURVE",
"335 -8 CURVE SMOOTH"
);
},
{
closed = 1;
nodes = (
"199 12 OFFCURVE",
"105 111 OFFCURVE",
"105 275 CURVE SMOOTH",
"105 439 OFFCURVE",
"199 538 OFFCURVE",
"335 538 CURVE SMOOTH",
"471 538 OFFCURVE",
"565 439 OFFCURVE",
"565 275 CURVE SMOOTH",
"565 111 OFFCURVE",
"471 12 OFFCURVE",
"335 12 CURVE SMOOTH"
);
}
);
width = 670;
}
);
leftKerningGroup = o;
rightKerningGroup = o;
unicode = 006F;
},
{
glyphname = p;
lastChange = "2020-05-18 18:21:45 +0000";
layers = (
{
layerId = "CA54B7DC-FBBB-40FE-ACF3-AABDD76D6A7B";
paths = (
{
closed = 1;
nodes = (
"316 -170 LINE",
"52 -170 LINE",
"52 -190 LINE",
"316 -190 LINE"
);
},
{
closed = 1;
nodes = (
"176 167 LINE",
"161 275 LINE",
"174 373 LINE",
"174 550 LINE",
"152 550 LINE",
"152 -190 LINE",
"176 -190 LINE"
);
},
{
closed = 1;
nodes = (
"62 530 LINE",
"174 530 LINE",
"174 550 LINE",
"62 550 LINE"
);
},
{
closed = 1;
nodes = (
"527 -8 OFFCURVE",
"626 99 OFFCURVE",
"626 275 CURVE SMOOTH",
"626 451 OFFCURVE",
"527 558 OFFCURVE",
"390 558 CURVE SMOOTH",
"243 558 OFFCURVE",
"154 451 OFFCURVE",
"154 275 CURVE SMOOTH",
"154 99 OFFCURVE",
"243 -8 OFFCURVE",
"390 -8 CURVE SMOOTH"
);
},
{
closed = 1;
nodes = (
"264 12 OFFCURVE",
"174 110 OFFCURVE",
"174 275 CURVE SMOOTH",
"174 440 OFFCURVE",
"264 538 OFFCURVE",
"390 538 CURVE SMOOTH",
"514 538 OFFCURVE",
"602 440 OFFCURVE",
"602 275 CURVE SMOOTH",
"602 110 OFFCURVE",
"514 12 OFFCURVE",
"390 12 CURVE SMOOTH"
);
}
);
width = 706;
}
);
leftKerningGroup = p;
rightKerningGroup = o;
rightMetricsKey = o;
unicode = 0070;
},
{
glyphname = q;
lastChange = "2020-05-18 18:21:48 +0000";
layers = (
{
layerId = "CA54B7DC-FBBB-40FE-ACF3-AABDD76D6A7B";
paths = (
{
closed = 1;
nodes = (
"654 -190 LINE",
"654 -170 LINE",
"390 -170 LINE",
"390 -190 LINE"
);
},
{
closed = 1;
nodes = (
"554 -190 LINE",
"554 550 LINE",
"532 550 LINE",
"532 375 LINE",
"545 275 LINE",
"530 167 LINE",
"530 -190 LINE"
);
},
{
closed = 1;
nodes = (
"463 -8 OFFCURVE",
"552 99 OFFCURVE",
"552 275 CURVE SMOOTH",
"552 451 OFFCURVE",
"463 558 OFFCURVE",
"316 558 CURVE SMOOTH",
"179 558 OFFCURVE",
"80 451 OFFCURVE",
"80 275 CURVE SMOOTH",
"80 99 OFFCURVE",
"179 -8 OFFCURVE",
"316 -8 CURVE SMOOTH"
);
},
{
closed = 1;
nodes = (
"192 12 OFFCURVE",
"104 110 OFFCURVE",
"104 275 CURVE SMOOTH",
"104 440 OFFCURVE",
"192 538 OFFCURVE",
"316 538 CURVE SMOOTH",
"442 538 OFFCURVE",
"532 440 OFFCURVE",
"532 275 CURVE SMOOTH",
"532 110 OFFCURVE",
"442 12 OFFCURVE",
"316 12 CURVE SMOOTH"
);
}
);
width = 696;
}
);
leftKerningGroup = o;
leftMetricsKey = o;
rightKerningGroup = q;
unicode = 0071;
},
{
glyphname = r;
lastChange = "2020-05-18 18:21:54 +0000";
layers = (
{
layerId = "CA54B7DC-FBBB-40FE-ACF3-AABDD76D6A7B";
paths = (
{
closed = 1;
nodes = (
"194 310 LINE",
"194 457 OFFCURVE",
"277 540 OFFCURVE",
"363 540 CURVE SMOOTH",
"431 540 OFFCURVE",
"465 504 OFFCURVE",
"465 451 CURVE SMOOTH",
"465 417 OFFCURVE",
"453 401 OFFCURVE",
"453 382 CURVE SMOOTH",
"453 371 OFFCURVE",
"458 362 OFFCURVE",
"469 362 CURVE SMOOTH",
"487 362 OFFCURVE",
"494 388 OFFCURVE",
"494 424 CURVE SMOOTH",
"494 513 OFFCURVE",
"448 560 OFFCURVE",
"365 560 CURVE SMOOTH",
"265 560 OFFCURVE",
"178 481 OFFCURVE",
"178 310 CURVE"
);
},
{
closed = 1;
nodes = (
"170 0 LINE",
"194 0 LINE",
"194 375 LINE",
"190 375 LINE",
"190 550 LINE",
"170 550 LINE"
);
},
{
closed = 1;
nodes = (
"60 0 LINE",
"334 0 LINE",
"334 20 LINE",
"60 20 LINE"
);
},
{
closed = 1;
nodes = (
"75 530 LINE",
"190 530 LINE",
"190 550 LINE",
"75 550 LINE"
);
}
);
width = 562;
}
);
leftKerningGroup = n;
leftMetricsKey = n;
rightKerningGroup = r;
unicode = 0072;
},
{
glyphname = s;
lastChange = "2020-05-08 20:02:26 +0000";
layers = (
{
layerId = "CA54B7DC-FBBB-40FE-ACF3-AABDD76D6A7B";
paths = (
{
closed = 1;
nodes = (
"100 339 OFFCURVE",
"166 303 OFFCURVE",
"265 279 CURVE SMOOTH",
"336 262 LINE SMOOTH",
"413 244 OFFCURVE",
"484 212 OFFCURVE",
"484 133 CURVE SMOOTH",
"484 55 OFFCURVE",
"427 10 OFFCURVE",
"332 10 CURVE SMOOTH",
"240 10 OFFCURVE",
"157 52 OFFCURVE",
"122 165 CURVE",
"104 165 LINE",
"135 39 OFFCURVE",
"228 -10 OFFCURVE",
"334 -10 CURVE SMOOTH",
"439 -10 OFFCURVE",
"508 43 OFFCURVE",
"508 133 CURVE SMOOTH",
"508 224 OFFCURVE",
"431 260 OFFCURVE",
"340 282 CURVE SMOOTH",
"270 299 LINE SMOOTH",
"189 319 OFFCURVE",
"124 346 OFFCURVE",
"124 425 CURVE SMOOTH",
"124 500 OFFCURVE",
"180 540 OFFCURVE",
"266 540 CURVE SMOOTH",
"347 540 OFFCURVE",
"436 500 OFFCURVE",
"466 395 CURVE",
"484 395 LINE",
"457 512 OFFCURVE",
"365 560 OFFCURVE",
"266 560 CURVE SMOOTH",
"166 560 OFFCURVE",
"100 510 OFFCURVE",
"100 425 CURVE SMOOTH"
);
},
{
closed = 1;
nodes = (
"466 554 LINE",
"466 424 LINE",
"484 395 LINE",
"488 395 LINE",
"488 554 LINE"
);
},
{
closed = 1;
nodes = (
"122 -4 LINE",
"122 130 LINE",
"104 165 LINE",
"100 165 LINE",
"100 -4 LINE"
);
}
);
width = 582;
}
);
leftKerningGroup = s;
rightKerningGroup = s;
unicode = 0073;
},
{
glyphname = t;
lastChange = "2020-05-18 19:03:37 +0000";
layers = (
{
layerId = "CA54B7DC-FBBB-40FE-ACF3-AABDD76D6A7B";
paths = (
{
closed = 1;
nodes = (
"184 620 LINE SMOOTH",
"184 564 OFFCURVE",
"180 550 OFFCURVE",
"124 550 CURVE SMOOTH",
"10 550 LINE",
"10 530 LINE",
"180 530 LINE",
"180 156 LINE SMOOTH",
"180 46 OFFCURVE",
"229 -10 OFFCURVE",
"321 -10 CURVE SMOOTH",
"413 -10 OFFCURVE",
"462 47 OFFCURVE",
"462 156 CURVE SMOOTH",
"462 260 LINE",
"440 260 LINE",
"440 156 LINE SMOOTH",
"440 63 OFFCURVE",
"401 12 OFFCURVE",
"322 12 CURVE SMOOTH",
"243 12 OFFCURVE",
"204 62 OFFCURVE",
"204 156 CURVE SMOOTH",
"204 720 LINE",
"184 720 LINE"
);
},
{
closed = 1;
nodes = (
"204 530 LINE",
"502 530 LINE",
"502 550 LINE",
"204 550 LINE"
);
}
);
width = 544;
}
);
leftKerningGroup = t;
rightKerningGroup = t;
unicode = 0074;
},
{
glyphname = u;
lastChange = "2020-05-18 16:12:36 +0000";
layers = (
{
layerId = "CA54B7DC-FBBB-40FE-ACF3-AABDD76D6A7B";
paths = (
{
closed = 1;
nodes = (
"530 550 LINE",
"506 550 LINE",
"506 195 LINE",
"510 195 LINE",
"510 0 LINE",
"530 0 LINE"
);
},
{
closed = 1;
nodes = (
"530 550 LINE",
"396 550 LINE",
"396 530 LINE",
"530 530 LINE"
);
},
{
closed = 1;
nodes = (
"630 20 LINE",
"510 20 LINE",
"510 0 LINE",
"630 0 LINE"
);
},
{
closed = 1;
nodes = (
"506 274 LINE",
"506 93 OFFCURVE",
"404 11 OFFCURVE",
"293 12 CURVE SMOOTH",
"208 13 OFFCURVE",
"158 50 OFFCURVE",
"158 139 CURVE",
"158 551 LINE",
"134 551 LINE",
"134 139 LINE",
"134 34 OFFCURVE",
"198 -7 OFFCURVE",
"292 -8 CURVE SMOOTH",
"414 -9 OFFCURVE",
"525 73 OFFCURVE",
"525 274 CURVE"
);
},
{
closed = 1;
nodes = (
"158 551 LINE",
"39 551 LINE",
"39 531 LINE",
"158 531 LINE"
);
}
);
width = 680;
}
);
leftKerningGroup = u;
rightKerningGroup = u;
rightMetricsKey = l;
unicode = 0075;
},
{
glyphname = v;
lastChange = "2020-05-18 15:47:25 +0000";
layers = (
{
layerId = "CA54B7DC-FBBB-40FE-ACF3-AABDD76D6A7B";
paths = (
{
closed = 1;
nodes = (
"510 530 LINE",
"487 530 LINE",
"297 25 LINE",
"296 0 LINE",
"310 0 LINE"
);
},
{
closed = 1;
nodes = (
"580 550 LINE",
"377 550 LINE",
"377 530 LINE",
"580 530 LINE"
);
},
{
closed = 1;
nodes = (
"302 0 LINE",
"303 25 LINE",
"113 530 LINE",
"88 530 LINE",
"288 0 LINE"
);
},
{
closed = 1;
nodes = (
"233 530 LINE",
"233 550 LINE",
"18 550 LINE",
"18 530 LINE"
);
}
);
width = 598;
}
);
leftKerningGroup = v;
rightKerningGroup = v;
unicode = 0076;
},
{
glyphname = w;
lastChange = "2020-05-18 16:19:02 +0000";
layers = (
{
layerId = "CA54B7DC-FBBB-40FE-ACF3-AABDD76D6A7B";
paths = (
{
closed = 1;
nodes = (
"401 434 LINE",
"390 471 LINE",
"257 28 LINE",
"256 0 LINE",
"270 0 LINE"
);
},
{
closed = 1;
nodes = (
"262 0 LINE",
"263 28 LINE",
"112 530 LINE",
"88 530 LINE",
"248 0 LINE"
);
},
{
closed = 1;
nodes = (
"232 530 LINE",
"232 550 LINE",
"18 550 LINE",
"18 530 LINE"
);
},
{
closed = 1;
nodes = (
"710 530 LINE",
"688 530 LINE",
"537 28 LINE",
"536 0 LINE",
"550 0 LINE"
);
},
{
closed = 1;
nodes = (
"780 550 LINE",
"578 550 LINE",
"578 530 LINE",
"780 530 LINE"
);
},
{
closed = 1;
nodes = (
"542 0 LINE",
"543 28 LINE",
"392 530 LINE",
"368 530 LINE",
"528 0 LINE"
);
},
{
closed = 1;
nodes = (
"512 530 LINE",
"512 550 LINE",
"298 550 LINE",
"298 530 LINE"
);
}
);
width = 798;
}
);
leftKerningGroup = w;
leftMetricsKey = v;
rightKerningGroup = w;
rightMetricsKey = v;
unicode = 0077;
},
{
glyphname = x;
lastChange = "2020-05-18 18:19:25 +0000";
layers = (
{
layerId = "CA54B7DC-FBBB-40FE-ACF3-AABDD76D6A7B";
paths = (
{
closed = 1;
nodes = (
"316 265 LINE",
"513 530 LINE",
"486 530 LINE",
"310 293 LINE"
);
},
{
closed = 1;
nodes = (
"583 550 LINE",
"391 550 LINE",
"391 530 LINE",
"583 530 LINE"
);
},
{
closed = 1;
nodes = (
"308 293 LINE",
"106 20 LINE",
"133 20 LINE",
"314 265 LINE"
);
},
{
closed = 1;
nodes = (
"228 20 LINE",
"36 20 LINE",
"36 0 LINE",
"228 0 LINE"
);
},
{
closed = 1;
nodes = (
"140 530 LINE",
"113 530 LINE",
"310 265 LINE",
"316 293 LINE"
);
},
{
closed = 1;
nodes = (
"235 530 LINE",
"235 550 LINE",
"43 550 LINE",
"43 530 LINE"
);
},
{
closed = 1;
nodes = (
"493 20 LINE",
"520 20 LINE",
"318 293 LINE",
"312 265 LINE"
);
},
{
closed = 1;
nodes = (
"590 0 LINE",
"590 20 LINE",
"398 20 LINE",
"398 0 LINE"
);
},
{
closed = 1;
nodes = (
"319 266 OFFCURVE",
"323 270 OFFCURVE",
"323 276 CURVE SMOOTH",
"323 282 OFFCURVE",
"319 286 OFFCURVE",
"313 286 CURVE SMOOTH",
"307 286 OFFCURVE",
"303 282 OFFCURVE",
"303 276 CURVE SMOOTH",
"303 270 OFFCURVE",
"307 266 OFFCURVE",
"313 266 CURVE SMOOTH"
);
}
);
width = 626;
}
);
leftKerningGroup = x;
rightKerningGroup = x;
unicode = 0078;
},
{
glyphname = y;
lastChange = "2020-05-18 18:21:01 +0000";
layers = (
{
layerId = "CA54B7DC-FBBB-40FE-ACF3-AABDD76D6A7B";
paths = (
{
closed = 1;
nodes = (
"580 550 LINE",
"377 550 LINE",
"377 530 LINE",
"580 530 LINE"
);
},
{
closed = 1;
nodes = (
"302 0 LINE",
"303 25 LINE",
"113 530 LINE",
"88 530 LINE",
"295 -18 LINE"
);
},
{
closed = 1;
nodes = (
"233 530 LINE",
"233 550 LINE",
"18 550 LINE",
"18 530 LINE"
);
},
{
closed = 1;
nodes = (
"34 -162 OFFCURVE",
"77 -200 OFFCURVE",
"147 -200 CURVE SMOOTH",
"212 -200 OFFCURVE",
"249 -161 OFFCURVE",
"274 -94 CURVE SMOOTH",
"510 530 LINE",
"487 530 LINE",
"297 25 LINE",
"290 8 LINE",
"254 -88 LINE SMOOTH",
"232 -146 OFFCURVE",
"199 -180 OFFCURVE",
"147 -180 CURVE SMOOTH",
"92 -180 OFFCURVE",
"57 -150 OFFCURVE",
"55 -104 CURVE SMOOTH",
"54 -75 OFFCURVE",
"69 -70 OFFCURVE",
"69 -51 CURVE SMOOTH",
"69 -42 OFFCURVE",
"64 -37 OFFCURVE",
"56 -37 CURVE SMOOTH",
"41 -37 OFFCURVE",
"31 -59 OFFCURVE",
"32 -93 CURVE SMOOTH"
);
}
);
width = 598;
}
);
leftKerningGroup = v;
leftMetricsKey = v;
rightKerningGroup = v;
rightMetricsKey = v;
unicode = 0079;
},
{
glyphname = z;
lastChange = "2020-05-08 14:37:14 +0000";
layers = (
{
layerId = "CA54B7DC-FBBB-40FE-ACF3-AABDD76D6A7B";
paths = (
{
closed = 1;
nodes = (
"72 530 LINE",
"446 530 LINE",
"476 532 LINE",
"476 550 LINE",
"72 550 LINE"
);
},
{
closed = 1;
nodes = (
"52 0 LINE",
"478 0 LINE",
"478 20 LINE",
"82 20 LINE",
"52 18 LINE"
);
},
{
closed = 1;
nodes = (
"82 20 LINE",
"476 532 LINE",
"446 530 LINE",
"52 18 LINE"
);
},
{
closed = 1;
nodes = (
"478 20 LINE",
"478 185 LINE",
"458 185 LINE",
"458 90 LINE SMOOTH",
"458 34 OFFCURVE",
"454 20 OFFCURVE",
"398 20 CURVE"
);
},
{
closed = 1;
nodes = (
"72 530 LINE",
"72 369 LINE",
"92 369 LINE",
"92 460 LINE SMOOTH",
"92 516 OFFCURVE",
"96 530 OFFCURVE",
"152 530 CURVE"
);
}
);
width = 538;
}
);
leftKerningGroup = z;
rightKerningGroup = z;
unicode = 007A;
},
{
glyphname = idotless.ss01;
lastChange = "2020-05-18 19:02:57 +0000";
layers = (
{
anchors = (
{
name = top;
position = "{147, 550}";
}
);
layerId = "CA54B7DC-FBBB-40FE-ACF3-AABDD76D6A7B";
paths = (
{
closed = 1;
nodes = (
"135 86 LINE",
"159 86 LINE",
"159 550 LINE",
"135 550 LINE"
);
},
{
closed = 1;
nodes = (
"20 530 LINE",
"159 530 LINE",
"159 550 LINE",
"20 550 LINE"
);
},
{
closed = 1;
nodes = (
"135 86 LINE",
"135 25 OFFCURVE",
"169 -10 OFFCURVE",
"224 -10 CURVE SMOOTH",
"278 -10 OFFCURVE",
"311 25 OFFCURVE",
"311 86 CURVE SMOOTH",
"311 160 LINE",
"289 160 LINE",
"289 86 LINE SMOOTH",
"289 41 OFFCURVE",
"267 10 OFFCURVE",
"224 10 CURVE SMOOTH",
"181 10 OFFCURVE",
"159 41 OFFCURVE",
"159 86 CURVE"
);
}
);
width = 353;
}
);
leftMetricsKey = l.ss01;
rightMetricsKey = l.ss01;
},
{
glyphname = l.ss01;
lastChange = "2020-05-18 19:02:53 +0000";
layers = (
{
layerId = "CA54B7DC-FBBB-40FE-ACF3-AABDD76D6A7B";
paths = (
{
closed = 1;
nodes = (
"135 86 LINE",
"159 86 LINE",
"159 760 LINE",
"135 760 LINE"
);
},
{
closed = 1;
nodes = (
"20 740 LINE",
"159 740 LINE",
"159 760 LINE",
"20 760 LINE"
);
},
{
closed = 1;
nodes = (
"135 86 LINE",
"135 25 OFFCURVE",
"169 -10 OFFCURVE",
"224 -10 CURVE SMOOTH",
"278 -10 OFFCURVE",
"311 25 OFFCURVE",
"311 86 CURVE SMOOTH",
"311 160 LINE",
"289 160 LINE",
"289 86 LINE SMOOTH",
"289 41 OFFCURVE",
"267 10 OFFCURVE",
"224 10 CURVE SMOOTH",
"181 10 OFFCURVE",
"159 41 OFFCURVE",
"159 86 CURVE"
);
}
);
width = 353;
}
);
},
{
glyphname = f_f.liga;
lastChange = "2020-05-18 19:11:41 +0000";
layers = (
{
layerId = "CA54B7DC-FBBB-40FE-ACF3-AABDD76D6A7B";
paths = (
{
closed = 1;
nodes = (
"18 530 LINE",
"382 530 LINE",
"382 550 LINE",
"18 550 LINE"
);
},
{
closed = 1;
nodes = (
"168 0 LINE",
"192 0 LINE",
"192 575 LINE",
"168 573 LINE"
);
},
{
closed = 1;
nodes = (
"58 0 LINE",
"332 0 LINE",
"332 20 LINE",
"58 20 LINE"
);
},
{
closed = 1;
nodes = (
"382 530 LINE",
"746 530 LINE",
"746 550 LINE",
"382 550 LINE"
);
},
{
closed = 1;
nodes = (
"532 0 LINE",
"556 0 LINE",
"556 575 LINE",
"532 573 LINE"
);
},
{
closed = 1;
nodes = (
"422 0 LINE",
"696 0 LINE",
"696 20 LINE",
"422 20 LINE"
);
},
{
closed = 1;
nodes = (
"834 753 OFFCURVE",
"788 790 OFFCURVE",
"716 790 CURVE SMOOTH",
"598 790 OFFCURVE",
"532 716 OFFCURVE",
"532 573 CURVE",
"556 575 LINE",
"556 706 OFFCURVE",
"613 770 OFFCURVE",
"716 770 CURVE SMOOTH",
"774 770 OFFCURVE",
"809 742 OFFCURVE",
"812 704 CURVE SMOOTH",
"814 675 OFFCURVE",
"798 670 OFFCURVE",
"798 651 CURVE SMOOTH",
"798 642 OFFCURVE",
"803 637 OFFCURVE",
"811 637 CURVE SMOOTH",
"827 637 OFFCURVE",
"837 664 OFFCURVE",
"836 695 CURVE SMOOTH"
);
},
{
closed = 1;
nodes = (
"452 743 OFFCURVE",
"413 780 OFFCURVE",
"344 780 CURVE SMOOTH",
"231 780 OFFCURVE",
"168 709 OFFCURVE",
"168 573 CURVE",
"192 575 LINE",
"192 699 OFFCURVE",
"246 760 OFFCURVE",
"344 760 CURVE SMOOTH",
"399 760 OFFCURVE",
"427 732 OFFCURVE",
"430 694 CURVE SMOOTH",
"432 665 OFFCURVE",
"416 660 OFFCURVE",
"416 641 CURVE SMOOTH",
"416 632 OFFCURVE",
"421 627 OFFCURVE",
"429 627 CURVE SMOOTH",
"445 627 OFFCURVE",
"455 654 OFFCURVE",
"454 685 CURVE SMOOTH"
);
}
);
width = 778;
}
);
leftMetricsKey = f;
rightMetricsKey = f;
},
{
glyphname = f_f_i.liga;
lastChange = "2020-05-18 19:12:17 +0000";
layers = (
{
layerId = "CA54B7DC-FBBB-40FE-ACF3-AABDD76D6A7B";
paths = (
{
closed = 1;
nodes = (
"18 530 LINE",
"382 530 LINE",
"382 550 LINE",
"18 550 LINE"
);
},
{
closed = 1;
nodes = (
"168 0 LINE",
"192 0 LINE",
"192 575 LINE",
"168 573 LINE"
);
},
{
closed = 1;
nodes = (
"58 0 LINE",
"332 0 LINE",
"332 20 LINE",
"58 20 LINE"
);
},
{
closed = 1;
nodes = (
"452 743 OFFCURVE",
"413 780 OFFCURVE",
"344 780 CURVE SMOOTH",
"231 780 OFFCURVE",
"168 709 OFFCURVE",
"168 573 CURVE",
"192 575 LINE",
"192 699 OFFCURVE",
"246 760 OFFCURVE",
"344 760 CURVE SMOOTH",
"399 760 OFFCURVE",
"427 732 OFFCURVE",
"430 694 CURVE SMOOTH",
"432 665 OFFCURVE",
"416 660 OFFCURVE",
"416 641 CURVE SMOOTH",
"416 632 OFFCURVE",
"421 627 OFFCURVE",
"429 627 CURVE SMOOTH",
"445 627 OFFCURVE",
"455 654 OFFCURVE",
"454 685 CURVE SMOOTH"
);
},
{
closed = 1;
nodes = (
"382 530 LINE",
"920 530 LINE",
"920 550 LINE",
"382 550 LINE"
);
},
{
closed = 1;
nodes = (
"532 0 LINE",
"556 0 LINE",
"556 565 LINE",
"532 563 LINE"
);
},
{
closed = 1;
nodes = (
"422 0 LINE",
"696 0 LINE",
"696 20 LINE",
"422 20 LINE"
);
},
{
closed = 1;
nodes = (
"924 745 OFFCURVE",
"862 790 OFFCURVE",
"766 790 CURVE SMOOTH",
"616 790 OFFCURVE",
"532 709 OFFCURVE",
"532 563 CURVE",
"556 565 LINE",
"556 699 OFFCURVE",
"631 770 OFFCURVE",
"766 770 CURVE SMOOTH",
"848 770 OFFCURVE",
"899 734 OFFCURVE",
"902 684 CURVE SMOOTH",
"904 655 OFFCURVE",
"888 650 OFFCURVE",
"888 631 CURVE SMOOTH",
"888 622 OFFCURVE",
"893 617 OFFCURVE",
"901 617 CURVE SMOOTH",
"917 617 OFFCURVE",
"927 644 OFFCURVE",
"926 675 CURVE SMOOTH"
);
},
{
closed = 1;
nodes = (
"896 0 LINE",
"920 0 LINE",
"920 550 LINE",
"896 550 LINE"
);
},
{
closed = 1;
nodes = (
"786 0 LINE",
"1020 0 LINE",
"1020 20 LINE",
"786 20 LINE"
);
}
);
width = 1070;
}
);
leftMetricsKey = f;
rightMetricsKey = i;
},
{
glyphname = f_f_l.liga;
lastChange = "2020-05-18 19:12:49 +0000";
layers = (
{
layerId = "CA54B7DC-FBBB-40FE-ACF3-AABDD76D6A7B";
paths = (
{
closed = 1;
nodes = (
"18 530 LINE",
"382 530 LINE",
"382 550 LINE",
"18 550 LINE"
);
},
{
closed = 1;
nodes = (
"168 0 LINE",
"192 0 LINE",
"192 575 LINE",
"168 573 LINE"
);
},
{
closed = 1;
nodes = (
"58 0 LINE",
"332 0 LINE",
"332 20 LINE",
"58 20 LINE"
);
},
{
closed = 1;
nodes = (
"452 743 OFFCURVE",
"413 780 OFFCURVE",
"344 780 CURVE SMOOTH",
"231 780 OFFCURVE",
"168 709 OFFCURVE",
"168 573 CURVE",
"192 575 LINE",
"192 699 OFFCURVE",
"246 760 OFFCURVE",
"344 760 CURVE SMOOTH",
"399 760 OFFCURVE",
"427 732 OFFCURVE",
"430 694 CURVE SMOOTH",
"432 665 OFFCURVE",
"416 660 OFFCURVE",
"416 641 CURVE SMOOTH",
"416 632 OFFCURVE",
"421 627 OFFCURVE",
"429 627 CURVE SMOOTH",
"445 627 OFFCURVE",
"455 654 OFFCURVE",
"454 685 CURVE SMOOTH"
);
},
{
closed = 1;
nodes = (
"382 530 LINE",
"746 530 LINE",
"746 550 LINE",
"382 550 LINE"
);
},
{
closed = 1;
nodes = (
"532 0 LINE",
"556 0 LINE",
"556 575 LINE",
"532 573 LINE"
);
},
{
closed = 1;
nodes = (
"422 0 LINE",
"696 0 LINE",
"696 20 LINE",
"422 20 LINE"
);
},
{
closed = 1;
nodes = (
"816 743 OFFCURVE",
"777 780 OFFCURVE",
"708 780 CURVE SMOOTH",
"595 780 OFFCURVE",
"532 709 OFFCURVE",
"532 573 CURVE",
"556 575 LINE",
"556 699 OFFCURVE",
"610 760 OFFCURVE",
"708 760 CURVE SMOOTH",
"763 760 OFFCURVE",
"791 732 OFFCURVE",
"794 694 CURVE SMOOTH",
"796 665 OFFCURVE",
"780 660 OFFCURVE",
"780 641 CURVE SMOOTH",
"780 632 OFFCURVE",
"785 627 OFFCURVE",
"793 627 CURVE SMOOTH",
"809 627 OFFCURVE",
"819 654 OFFCURVE",
"818 685 CURVE SMOOTH"
);
},
{
closed = 1;
nodes = (
"896 0 LINE",
"920 0 LINE",
"920 760 LINE",
"896 760 LINE"
);
},
{
closed = 1;
nodes = (
"786 0 LINE",
"1020 0 LINE",
"1020 20 LINE",
"786 20 LINE"
);
}
);
width = 1070;
}
);
leftMetricsKey = f;
rightMetricsKey = l;
},
{
glyphname = f_i.liga;
lastChange = "2020-05-18 19:09:17 +0000";
layers = (
{
layerId = "CA54B7DC-FBBB-40FE-ACF3-AABDD76D6A7B";
paths = (
{
closed = 1;
nodes = (
"18 530 LINE",
"556 530 LINE",
"556 550 LINE",
"18 550 LINE"
);
},
{
closed = 1;
nodes = (
"168 0 LINE",
"192 0 LINE",
"192 565 LINE",
"168 563 LINE"
);
},
{
closed = 1;
nodes = (
"58 0 LINE",
"332 0 LINE",
"332 20 LINE",
"58 20 LINE"
);
},
{
closed = 1;
nodes = (
"560 745 OFFCURVE",
"498 790 OFFCURVE",
"402 790 CURVE SMOOTH",
"252 790 OFFCURVE",
"168 709 OFFCURVE",
"168 563 CURVE",
"192 565 LINE",
"192 699 OFFCURVE",
"267 770 OFFCURVE",
"402 770 CURVE SMOOTH",
"484 770 OFFCURVE",
"535 734 OFFCURVE",
"538 684 CURVE SMOOTH",
"540 655 OFFCURVE",
"524 650 OFFCURVE",
"524 631 CURVE SMOOTH",
"524 622 OFFCURVE",
"529 617 OFFCURVE",
"537 617 CURVE SMOOTH",
"553 617 OFFCURVE",
"563 644 OFFCURVE",
"562 675 CURVE SMOOTH"
);
},
{
closed = 1;
nodes = (
"532 0 LINE",
"556 0 LINE",
"556 550 LINE",
"532 550 LINE"
);
},
{
closed = 1;
nodes = (
"422 0 LINE",
"656 0 LINE",
"656 20 LINE",
"422 20 LINE"
);
}
);
width = 706;
}
);
leftMetricsKey = f;
rightMetricsKey = idotless;
},
{
glyphname = f_l.liga;
lastChange = "2020-05-18 19:10:43 +0000";
layers = (
{
layerId = "CA54B7DC-FBBB-40FE-ACF3-AABDD76D6A7B";
paths = (
{
closed = 1;
nodes = (
"18 530 LINE",
"382 530 LINE",
"382 550 LINE",
"18 550 LINE"
);
},
{
closed = 1;
nodes = (
"168 0 LINE",
"192 0 LINE",
"192 575 LINE",
"168 573 LINE"
);
},
{
closed = 1;
nodes = (
"58 0 LINE",
"332 0 LINE",
"332 20 LINE",
"58 20 LINE"
);
},
{
closed = 1;
nodes = (
"452 743 OFFCURVE",
"413 780 OFFCURVE",
"344 780 CURVE SMOOTH",
"231 780 OFFCURVE",
"168 709 OFFCURVE",
"168 573 CURVE",
"192 575 LINE",
"192 699 OFFCURVE",
"246 760 OFFCURVE",
"344 760 CURVE SMOOTH",
"399 760 OFFCURVE",
"427 732 OFFCURVE",
"430 694 CURVE SMOOTH",
"432 665 OFFCURVE",
"416 660 OFFCURVE",
"416 641 CURVE SMOOTH",
"416 632 OFFCURVE",
"421 627 OFFCURVE",
"429 627 CURVE SMOOTH",
"445 627 OFFCURVE",
"455 654 OFFCURVE",
"454 685 CURVE SMOOTH"
);
},
{
closed = 1;
nodes = (
"532 0 LINE",
"556 0 LINE",
"556 760 LINE",
"532 760 LINE"
);
},
{
closed = 1;
nodes = (
"422 0 LINE",
"656 0 LINE",
"656 20 LINE",
"422 20 LINE"
);
}
);
width = 706;
}
);
leftMetricsKey = f;
rightMetricsKey = l;
},
